<?xml version="1.0" encoding="utf-8"?>
<!-- Generator: Adobe Illustrator 25.0.1, SVG Export Plug-In . SVG Version: 6.00 Build 0)  -->
<svg version="1.0" id="katman_1" xmlns="http://www.w3.org/2000/svg" xmlns:xlink="http://www.w3.org/1999/xlink" x="0px" y="0px"
	 viewBox="0 0 400 180" style="enable-background:new 0 0 400 180;" xml:space="preserve">
<style type="text/css">
	.st1{fill:#C1170C;}
	.st2{fill:#FFFFFF;}
</style>
<g transform="matrix(.753532 0 0 .753532 30 10)">
	<path class="st1" d="M294.7,23.5c2.6,5.7,2.4,12-0.5,18.9l5.6-4.6c4.8-4.7,9.6-11.2,14.4-19.6l2.5-3.1c2-1.4,3.9-0.5,5.7,2.8
		c-5.8,11.6-14.5,21-26.2,28.3l6.5,0.4c5,1.2,9.3,4.4,13,9.4c-6.1-2.1-10.7-1.7-13.9,1.3l7.8,7.4c5.3,6.7,8.2,14.8,8.8,24.1
		c0.8,15.9,1.8,27.7,2.8,35.3c-0.1-0.9-5.9-6.5-17.3-17c-5.6-5.2-9.7-12.2-12.5-21.1l1.7,6.1c0.8,5.4,0.6,11.3-0.7,17.8
		c-2.4,11.6-9.2,23.6-20.5,35.8c-8.4,9.2-14.1,15-17,17.2c1.7-5.6,2.9-9.9,3.5-13.1c1.1-5.6,1.3-12.2,0.7-19.8
		c-0.8-10.1-1.1-17.1-0.8-21.1c0.5-8.4,2.6-15.7,6.4-22.1c-2.8,4.4-7.7,8.6-14.7,12.5c-14,8-31.3,10.9-52.1,8.7l-25.3-1.2l10.3-4.3
		c8.3-5,16.3-12.5,23.9-22.6c2.1-2.8,5.3-5.1,9.2-7.9c9.5-6.2,21.9-10.7,33.8-10c-3.8-0.4-8.3-1.5-13.5-3.4
		c-11.1-4-20.4-10.4-28-19.1c-9-9.7-19.5-16.5-31.6-20.2l38.2,0.5c18.9-0.5,33.5,3.6,43.6,12.4c-5.2-5.7-8.8-14.8-10.9-27.3
		c-0.9-5-3.7-10.7-8.3-17l12.5,6.9c9.4,4.8,16.1,8.8,19.9,12.2c7.5,6.6,11.9,15.1,13.3,25.4c3.9-2.5,5.5-7.6,4.9-15.5L294.7,23.5z"
		/>
	<path class="st2" d="M183.1,126.8c3.9-3.6,8.9-5.3,15.1-5.3c8,0,13.6,2.6,16.7,7.8
		c1.4,2.2,2,4.7,2,7.5c0,2.2-0.4,4.2-1.1,6c-0.8,1.6-1.7,2.9-2.8,4l-3.3,2.6c-5.4,3.1-11.2,4.7-17.5,5l-4.1,0.1
		c0.8,3.4,2.5,6.3,5,8.6c1.5,1.4,3.4,2.3,5.5,2.8c4.4,1,8.8,0.2,13.1-2.5l4.2-3.1v8.7c-3.9,3.4-9.2,5.1-16,5.1
		c-4.2,0-8-0.9-11.5-2.5c-3.1-1.3-5.8-3.4-8.2-6.4c-3.7-4.8-5.5-10.7-5.5-17.8C174.8,138.7,177.6,131.8,183.1,126.8L183.1,126.8z
		 M202.5,143.5c1.2-1,2.1-2.4,2.5-4.2c0.7-3,0-5.5-2-7.4c-2-2.1-4.7-2.7-7.9-1.9c-2.1,0.5-3.9,1.8-5.5,4c-1.4,2.1-2.3,5.2-2.7,9.3
		l0.1,4.1c6.8,0.4,11.9-0.8,15.3-3.7L202.5,143.5z M154.8,121.4l-5.6-1.8l1.3-5.1h16v67.1h-11.6L154.8,121.4z M13.9,108.9h-0.1l1.3-5.1h22v71.9H25.4v-56.2L7.5,151.7H-3.9l-17-32
		v56.1h-11.8v-65l-5.5-1.8l1.3-5.1h22l18.4,36.5l16.3-29.5L13.9,108.9z M111.8,128.6v7.1l1.3-1.7c3.6-4,7.9-6,12.9-6
		c5.4,0.2,10,2.5,13.7,7.1c3.8,4.6,5.8,10.1,5.8,16.6s-1.9,12-5.8,16.5c-3.8,4.4-8.5,6.8-13.9,7c-5.1,0.2-9.8-1.8-14-6v26.6h-11.7
		v-60.3l-5.6-1.8l1.3-5.1H111.8z M123.1,136.4c-3.1,0-5.7,1.5-7.8,4.6c-2.2,3-3.4,6.6-3.4,11c0,4.2,1.1,7.9,3.2,11
		c2.1,3,4.7,4.6,7.8,4.6c3,0,5.7-1.5,7.9-4.4c2.1-3.1,3.2-6.8,3.2-11.1c0-4.3-1.1-7.9-3.2-11C128.7,137.9,126.1,136.4,123.1,136.4z
		 M64.6,139c-4.8,0-9.7,1.4-14.7,4.2v-8.8c5.6-2,11.3-2.9,17-2.9c3.7,0,6.8,0.4,9.4,1.3c2.8,1.1,5,2.7,6.5,4.6
		c1.6,1.9,2.4,4.9,2.5,9.1v21.7c0,1.6,0.2,2.8,0.8,3.7c0.6,1,1.6,1.7,3.1,2.2l1.8,0.1v6.7l-6.5,0.9c-2.4,0-4.4-0.4-5.9-1.2
		c-1.6-0.7-3-2.1-4-4.2l-1.3,1.4c-3,2.8-7.3,4.1-12.9,4c-5,0-8.8-1.6-11.4-4.7c-2.1-2.5-3.2-5.8-3.2-9.8c0-4.4,1.9-8.2,5.6-11.2
		c3.7-3.2,9.8-4.9,18.4-4.9h3.7v-4.7c0.2-2.6-0.7-4.6-2.6-5.8C69.4,139.4,67.2,138.9,64.6,139L64.6,139z M67,173
		c5.2-1.8,7.4-6.8,6.5-15.1c-4-0.8-7.5-0.6-10.6,0.6c-3.1,1.2-5,3.1-5.6,5.6c-0.4,1.5-0.3,3,0.2,4.5c0.4,1.3,1.2,2.4,2.3,3.3
		c1.4,0.9,3,1.4,4.7,1.4L67,173z"/>
</g>
</svg>
